# AST/ASF file generated using VICON BodyLanguage
# -----------------------------------------------
:version 1.10
:name VICON
:units
  mass 1.0
  length 0.45
  angle deg
:documentation
   .ast/.asf automatically generated from VICON data using
   VICON BodyBuilder and BodyLanguage model FoxedUp or BRILLIANT.MOD
:root
   order TX TY TZ RX RY RZ
   axis XYZ
   position 0 0 0  
   orientation 0 0 0 
:bonedata
  begin
     id 1 
     name lhipjoint
     direction 0.547975 -0.797114 0.253638 
     length 2.36201 
     axis 0 0 0  XYZ
  end
  begin
     id 2 
     name lfemur
     direction 0.34202 -0.939693 0  
     length 7.69075  
     axis 0 0 20  XYZ
    dof rx ry rz
    limits (-160.0 20.0)
           (-70.0 70.0)
           (-60.0 70.0)
  end
  begin
     id 3 
     name ltibia
     direction 0.34202 -0.939693 0   
     length 7.91399   
     axis 0 0 20   XYZ
    dof rx
    limits (-10.0 170.0)
  end
  begin
     id 4 
     name lfoot
     direction 0.0705293 -0.193778 0.978507   
     length 2.13618   
     axis -90 7.62852e-016 20   XYZ
    dof rx rz
    limits (-45.0 90.0)
           (-70.0 20.0)
  end
  begin
     id 5 
     name ltoes
     direction 1.53592e-011 -4.21925e-011 1   
     length 1.07518   
     axis -90 7.62852e-016 20   XYZ
    dof rx
    limits (-90.0 20.0)
  end
  begin
     id 6 
     name rhipjoint
     direction -0.57 -0.782963 0.249136   
     length 2.4047  
     axis 0 0 0  XYZ 
  end
  begin
     id 7 
     name rfemur
     direction -0.34202 -0.939693 0   
     length 7.51486   
     axis 0 0 -20   XYZ
    dof rx ry rz
    limits (-160.0 20.0)
           (-70.0 70.0)
           (-70.0 60.0)
  end
  begin
     id 8 
     name rtibia
     direction -0.34202 -0.939693 0   
     length 8.08317   
     axis 0 0 -20   XYZ
    dof rx
    limits (-10.0 170.0)
 end
 begin
     id 9 
     name rfoot
     direction -0.104954 -0.281256 0.953876   
     length 2.30343  
     axis -90 -7.62852e-016 -20   XYZ
    dof rx rz
    limits (-45.0 90.0)
           (-20.0 70.0)
  end
  begin
     id 10 
     name rtoes
     direction -1.53556e-011 -4.21922e-011 1   
     length 1.14803   
     axis -90 -7.62852e-016 -20   XYZ
    dof rx
    limits (-90.0 20.0)
  end
  begin
     id 11 
     name lowerback
     direction -0.0152855 0.99353 -0.11254   
     length 2.05311   
     axis 0 0 0   XYZ
    dof rx ry rz
    limits (-20.0 45.0)
           (-30.0 30.0)
           (-30.0 30.0)
  end
  begin
     id 12 
     name upperback
     direction -0.00157509 0.999443 -0.033332   
     length 2.06353   
     axis 0 0 0   XYZ
    dof rx ry rz
    limits (-20.0 45.0)
           (-30.0 30.0)
           (-30.0 30.0)
  end
  begin
     id 13 
     name thorax
     direction 0.00577788 0.999804 0.0189484   
     length 2.08472   
     axis 0 0 0   XYZ
    dof rx ry rz
    limits (-20.0 45.0)
           (-30.0 30.0)
           (-30.0 30.0)
  end
  begin
     id 14 
     name lowerneck
     direction -1.09301e-005 0.994719 0.10264   
     length 1.76249   
     axis 0 0 0   XYZ
    dof rx ry rz
    limits (-20.0 45.0)
           (-30.0 30.0)
           (-30.0 30.0)
  end
  begin
     id 15 
     name upperneck
     direction 0.0495018 0.988526 -0.142706   
     length 1.77897   
     axis 0 0 0   XYZ
    dof rx ry rz
    limits (-20.0 45.0)
           (-30.0 30.0)
           (-30.0 30.0)
  end
  begin
     id 16
     name head
     direction 0.0142736 0.998114 -0.0597101  
     length 1.78934  
     axis 0 0 0   XYZ
    dof rx ry rz
    limits (-20.0 45.0)
           (-30.0 30.0)
           (-30.0 30.0)
  end
  begin
     id 17 
     name lclavicle
     direction 0.918111 0.396107 -0.0130883  
     length 3.37276  
     axis 0 0 0   XYZ
    dof ry rz
    limits (-20.0 10.0)
           (0.0 20.0)
  end
  begin
     id 18 
     name lhumerus
     direction 1 -4.48975e-011 -3.26108e-027   
     length 5.34298   
     axis 180 -30 -90   XYZ
    dof rx ry rz
    limits (-60.0 90.0)
           (-90.0 90.0)
           (-90.0 90.0)
  end
  begin
     id 19
     name lradius
     direction 1 -4.48964e-011 -8.84413e-028   
     length 3.67262   
     axis 180 -30 -90   XYZ
    dof rx
    limits (-10.0 170.0)
  end
  begin
     id 20
     name lwrist
     direction 1 -4.48991e-011 -1.24264e-027   
     length 1.83631   
     axis -2.17013e-015 90 90   XYZ
    dof ry
    limits (-180.0 0.0)
 end
  begin
     id 21 
     name lhand
     direction 1 -4.48855e-011 -2.48528e-027   
     length 0.599298   
     axis 1.58582e-015 90 90   XYZ
    dof rx rz
    limits (-90.0 90.0)
           (-45.0 45.0)
  end
  begin
     id 22 
     name lfingers
     direction 1 -4.48811e-011 -4.97056e-027   
     length 0.48317   
     axis 3.17164e-015 90 90   XYZ
    dof rx
    limits (0.0 90.0)
  end
  begin
     id 23
     name lthumb
     direction 0.707107 -6.34882e-011 0.707107   
     length 0.693738   
     axis -90 45 2.85299e-015   XYZ
    dof rx rz
    limits (-45.0 45.0)
           (-45.0 45.0)
  end
  begin
     id 24 
     name rclavicle
     direction -0.920511 0.384752 -0.0680135   
     length 3.43787  
     axis 0 0 0   XYZ 
    dof ry rz
    limits (-10.0 20.0)
           (-20.0 0.0)
  end
  begin
     id 25 
     name rhumerus
     direction -0.999976 -0.00330524 0.00603274  
     length 5.5498   
     axis 180 30 90   XYZ
    dof rx ry rz
    limits (-90.0 60.0)
           (-90.0 90.0)
           (-90.0 90.0)
  end
  begin
     id 26 
     name rradius
     direction -1 -4.48967e-011 8.62438e-027   
     length 3.69401   
     axis 180 30 90   XYZ
    dof rx
    limits (-10.0 170.0)
  end
  begin
     id 27 
     name rwrist
     direction -1 -4.4897e-011 9.54866e-027   
     length 1.84701   
     axis -7.69462e-015 -90 -90   XYZ
    dof ry
    limits (-180.0 0.0)
  end
  begin
     id 28
     name rhand
     direction -1 -4.48982e-011 1.90973e-026   
     length 0.638113   
     axis -1.21857e-014 -90 -90   XYZ
    dof rx rz
    limits (-90.0 90.0)
           (-45.0 45.0)
  end
  begin
     id 29
     name rfingers
     direction -1 -4.48936e-011 3.81946e-026   
     length 0.514463   
     axis -2.43714e-014 -90 -90   XYZ
    dof rx
    limits (0.0 90.0)
  end
  begin
     id 30
     name rthumb
     direction -0.707107 -6.34942e-011 0.707107   
     length 0.738669   
     axis -90 -45 -2.85299e-015   XYZ
    dof rx rz
    limits (-45.0 45.0)
           (-45.0 45.0)
  end
:hierarchy
  begin
    root lhipjoint rhipjoint lowerback
    lhipjoint lfemur
    lfemur ltibia
    ltibia lfoot
    lfoot ltoes
    rhipjoint rfemur
    rfemur rtibia
    rtibia rfoot
    rfoot rtoes
    lowerback upperback
    upperback thorax
    thorax lowerneck lclavicle rclavicle
    lowerneck upperneck
    upperneck head
    lclavicle lhumerus
    lhumerus lradius
    lradius lwrist
    lwrist lhand lthumb
    lhand lfingers
    rclavicle rhumerus
    rhumerus rradius
    rradius rwrist
    rwrist rhand rthumb
    rhand rfingers
  end

#!OML:ASF F:\twosubjects\two\Thursday\Session 1\Rory.ASF
:FULLY-SPECIFIED
:DEGREES
17
root 21.0576 18.7141 1.6812 3.65491 -16.7706 -2.07539
lowerback 1.5671 -1.1325 0.683989
upperback 0.902666 -1.50737 -2.12992
thorax -0.0285858 -0.749039 -2.54261
lowerneck 3.304 -17.0047 -14.3774
upperneck 6.96967 -25.3261 21.1852
head 6.18744 -12.5028 6.87752
rclavicle 3.29983e-014 1.74931e-014
rhumerus -22.2469 4.53502 -85.0801
rradius 55.5348
rwrist 2.68988
rhand -24.6367 20.6787
rfingers 7.12502
rthumb 1.86247 -9.29292
lclavicle 3.29983e-014 1.74931e-014
lhumerus -43.963 14.3142 68.5099
lradius 32.6565
lwrist -16.9083
lhand -11.4718 29.6295
lfingers 7.12502
lthumb 14.5659 59.0981
rfemur -1.35929 6.98429 27.0409
rtibia 21.4739
rfoot -12.8006 7.29283
rtoes 2.79414
lfemur -27.2063 -0.0318822 -12.6344
ltibia 26.7236
lfoot -8.65356 10.8064
ltoes -0.623723
18
root 21.0519 18.7171 1.83063 3.36543 -17.1793 -1.57107
lowerback 1.73643 -1.02609 0.280437
upperback 0.958183 -1.37249 -2.3123
thorax -0.0549324 -0.682654 -2.5031
lowerneck 2.97996 -16.8287 -13.9412
upperneck 7.1801 -24.9979 20.6973
head 6.11912 -12.3164 6.69947
rclavicle -2.50469e-014 7.95139e-015
rhumerus -22.009 4.90285 -85.2204
rradius 55.9198
rwrist 2.58124
rhand -24.6431 20.701
rfingers 7.12502
rthumb 1.85623 -9.27064
lclavicle -2.50469e-014 7.95139e-015
lhumerus -44.0779 14.185 68.4488
lradius 32.3203
lwrist -17.3589
lhand -11.1049 29.4143
lfingers 7.12502
lthumb 14.9195 58.857
rfemur -0.313351 7.0071 26.384
rtibia 20.8403
rfoot -12.6526 7.48498
rtoes 1.83284
lfemur -26.6344 -0.303394 -13.2256
ltibia 23.8741
lfoot -8.26295 10.7293
ltoes -0.740142
19
root 21.0428 18.7095 1.98545 3.26178 -17.6422 -1.23216
lowerback 1.69564 -0.894526 -0.00197438
upperback 0.982626 -1.20074 -2.38484
thorax 0.00501879 -0.597208 -2.42319
lowerneck 2.62552 -16.5804 -13.9728
upperneck 7.61508 -24.635 20.3329
head 6.2001 -12.1106 6.61227
rclavicle -1.2424e-014 1.19271e-014
rhumerus -21.7096 4.96204 -85.265
rradius 56.2719
rwrist 2.78625
rhand -24.4585 21.1618
rfingers 7.12502
rthumb 2.03458 -8.80822
lclavicle -1.2424e-014 1.19271e-014
lhumerus -44.1471 14.0051 68.6084
lradius 31.8961
lwrist -17.5182
lhand -11.1784 29.3565
lfingers 7.12502
lthumb 14.8486 58.8045
rfemur 0.577691 6.73587 25.8453
rtibia 20.1325
rfoot -12.6627 7.96496
rtoes 0.0330017
lfemur -26.1696 -0.0463522 -13.7901
ltibia 21.1388
lfoot -8.09172 10.2908
ltoes -3.92927
20
root 21.0352 18.7093 2.13566 3.44816 -18.0309 -1.46578
lowerback 1.47406 -0.795804 0.254616
upperback 1.03548 -1.0618 -2.28458
thorax 0.186417 -0.525329 -2.47066
lowerneck 2.08434 -16.3789 -13.8814
upperneck 8.28314 -24.3052 19.6465
head 6.33261 -11.9072 6.38487
rclavicle -1.12313e-014 1.35174e-014
rhumerus -21.3521 5.26594 -85.2979
rradius 56.6037
rwrist 2.71829
rhand -24.3835 21.1724
rfingers 7.12502
rthumb 2.10701 -8.79697
lclavicle -1.12313e-014 1.35174e-014
lhumerus -44.2775 14.0514 68.7455
lradius 31.6789
lwrist -17.4717
lhand -10.3277 29.6091
lfingers 7.12502
lthumb 15.668 58.9947
rfemur 1.28768 6.26621 25.8535
rtibia 19.4192
rfoot -12.6651 8.51788
rtoes -3.43599
lfemur -25.9106 0.286063 -13.7671
ltibia 18.5159
lfoot -8.18865 9.77886
ltoes -8.43684
21
root 21.0267 18.7202 2.27802 3.51814 -18.4029 -1.7018
lowerback 1.48521 -0.698936 0.556371
upperback 1.05562 -0.928913 -2.26826
thorax 0.202379 -0.457157 -2.62557
lowerneck 2.00825 -16.1366 -13.6507
upperneck 8.43426 -23.9094 19.217
head 6.23563 -11.7128 6.28218
rclavicle 4.88016e-014 5.56597e-015
rhumerus -21.1642 5.51117 -85.5306
rradius 56.8546
rwrist 2.64565
rhand -24.7214 21.2146
rfingers 7.12502
rthumb 1.78062 -8.75767
lclavicle 4.88016e-014 5.56597e-015
lhumerus -44.5433 13.8465 68.8499
lradius 31.552
lwrist -16.8504
lhand -9.60472 30.0674
lfingers 7.12502
lthumb 16.3643 59.3971
rfemur 2.14472 6.03233 25.8909
rtibia 18.6371
rfoot -12.3915 8.93797
rtoes -4.37066
lfemur -25.6013 0.115675 -13.5128
ltibia 16.118
lfoot -8.37731 9.40832
ltoes -9.40427
22
root 21.0171 18.7236 2.42501 3.55494 -18.7989 -1.94634
lowerback 1.58907 -0.616613 0.903425
upperback 1.03784 -0.815808 -2.30711
thorax 0.126433 -0.399684 -2.86134
lowerneck 2.12468 -15.834 -13.4155
upperneck 8.27633 -23.4453 19.0937
head 6.04191 -11.5002 6.30396
rclavicle 1.96797e-014 5.56597e-015
rhumerus -21.2067 5.82706 -85.8903
rradius 57.1622
rwrist 2.48265
rhand -25.0439 21.9396
rfingers 7.12502
rthumb 1.46912 -8.03508
lclavicle 1.96797e-014 5.56597e-015
lhumerus -44.9858 13.8039 68.6209
lradius 31.694
lwrist -17.188
lhand -10.8546 29.5702
lfingers 7.12502
lthumb 15.1605 58.9949
rfemur 3.03799 5.7752 25.9343
rtibia 17.8818
rfoot -12.1467 9.43456
rtoes -4.44709
lfemur -25.1361 -0.957382 -12.8262
ltibia 13.817
lfoot -8.83402 9.66967
ltoes -5.42825
23
root 21.0121 18.7207 2.57203 3.64473 -19.2569 -2.21558
lowerback 1.69651 -0.476013 1.26183
upperback 1.02174 -0.623621 -2.27817
thorax 0.0573292 -0.302851 -3.03562
lowerneck 2.02359 -15.6583 -13.2546
upperneck 8.31437 -23.1462 18.7986
head 5.96197 -11.3521 6.23091
rclavicle -1.77912e-014 -1.03368e-014
rhumerus -21.202 5.9883 -86.0688
rradius 57.4154
rwrist 2.38049
rhand -25.1116 22.2668
rfingers 7.12502
rthumb 1.40383 -7.70837
lclavicle -1.77912e-014 -1.03368e-014
lhumerus -45.3144 14.0651 68.3848
lradius 31.6283
lwrist -17.7485
lhand -11.2135 29.3735
lfingers 7.12502
lthumb 14.8148 58.824
rfemur 3.84643 5.47145 25.9947
rtibia 17.2107
rfoot -12.3624 9.77104
rtoes -9.56636
lfemur -24.6236 -1.97686 -12.1277
ltibia 11.4811
lfoot -9.00185 10.166
ltoes -3.18039
24
root 21.009 18.7213 2.71789 3.53861 -19.6856 -2.1055
lowerback 1.84925 -0.325371 1.23012
upperback 1.09476 -0.422527 -2.33554
thorax 0.0589722 -0.201598 -3.07983
lowerneck 1.49749 -15.5909 -13.1042
upperneck 8.73238 -23.0075 18.3796
head 6.08521 -11.2466 6.05081
rclavicle -3.71727e-014 1.03368e-014
rhumerus -20.8671 5.90071 -86.2126
rradius 57.3946
rwrist 2.61661
rhand -24.8608 21.8907
rfingers 7.12502
rthumb 1.646 -8.08272
lclavicle -3.71727e-014 1.03368e-014
lhumerus -45.1301 13.8639 68.5909
lradius 30.9222
lwrist -17.1168
lhand -12.6032 28.861
lfingers 7.12502
lthumb 13.4757 58.405
rfemur 4.74928 5.28288 25.6604
rtibia 16.4996
rfoot -12.3154 10.1012
rtoes -12.2456
lfemur -24.1376 -1.62263 -12.5083
ltibia 9.45289
lfoot -8.43854 9.67762
ltoes -4.53056
25
root 21.002 18.7226 2.8774 3.39406 -19.9958 -2.00812
lowerback 1.80742 -0.288898 1.21792
upperback 1.25515 -0.372596 -2.41575
thorax 0.24961 -0.172853 -3.15745
lowerneck 0.783612 -15.423 -12.9857
upperneck 9.34735 -22.7607 18.0517
head 6.30114 -11.0714 5.89961
rclavicle -1.90833e-014 2.8625e-014
rhumerus -20.6626 6.13392 -86.4327
rradius 57.4724
rwrist 2.63096
rhand -24.4304 22.133
rfingers 7.12502
rthumb 2.06164 -7.83681
lclavicle -1.90833e-014 2.8625e-014
lhumerus -45.0046 13.641 68.7339
lradius 30.4042
lwrist -16.6299
lhand -13.1294 28.9451
lfingers 7.12502
lthumb 12.9685 58.5221
rfemur 5.72035 5.14777 25.3069
rtibia 15.8208
rfoot -11.6887 10.7251
rtoes -8.92121
lfemur -23.6126 -1.39701 -12.8874
ltibia 7.75525
lfoot -5.32237 9.61396
ltoes -12.2301
26
root 20.9957 18.7227 3.04063 3.39882 -20.3569 -2.15006
lowerback 1.68247 -0.233475 1.42051
upperback 1.35157 -0.295024 -2.35448
thorax 0.422913 -0.129798 -3.21063
lowerneck 0.691494 -15.1782 -13.2708
upperneck 9.37482 -22.3951 17.9968
head 6.29145 -10.8986 5.96688
rclavicle -6.89783e-014 2.14687e-014
rhumerus -20.6274 6.29284 -86.5209
rradius 57.465
rwrist 2.76663
rhand -24.2253 22.4728
rfingers 7.12502
rthumb 2.2598 -7.49496
lclavicle -6.89783e-014 2.14687e-014
lhumerus -45.3272 14.1003 68.5622
lradius 30.2507
lwrist -17.2437
lhand -13.6019 28.8904
lfingers 7.12502
lthumb 12.513 58.4957
rfemur 6.64557 5.00712 25.1607
rtibia 15.0643
rfoot -11.0573 11.4349
rtoes -6.83148
lfemur -23.3744 -1.1094 -13.0677
ltibia 6.74497
lfoot -7.48382 10.098
ltoes -3.75323
27
root 20.9884 18.7209 3.19655 3.35439 -20.7634 -2.0538
lowerback 1.72105 -0.158634 1.2902
upperback 1.35961 -0.196764 -2.34853
thorax 0.41638 -0.0816256 -3.13215
lowerneck 0.839021 -14.9792 -13.4369
upperneck 9.11578 -22.0665 17.9157
head 6.14038 -10.7643 6.03032
rclavicle 3.8266e-014 -6.36111e-015
rhumerus -20.7036 6.52259 -86.6655
rradius 57.5198
rwrist 3.02397
rhand -24.3035 21.84
rfingers 7.12502
rthumb 2.18421 -8.12857
lclavicle 3.8266e-014 -6.36111e-015
lhumerus -45.5556 14.5137 68.3092
lradius 29.8751
lwrist -18.2644
lhand -13.6389 28.5246
lfingers 7.12502
lthumb 12.4773 58.1321
rfemur 7.57172 5.05784 24.8273
rtibia 14.151
rfoot -10.4566 11.8686
rtoes -7.17182
lfemur -23.5457 -0.806368 -13.5203
ltibia 6.76013
lfoot -6.9857 10.0786
ltoes -10.5613
